<?xml version="1.0" encoding="UTF-8"?>
<svg width="548px" height="166px" viewBox="0 0 548 166" version="1.1" xmlns="http://www.w3.org/2000/svg" xmlns:xlink="http://www.w3.org/1999/xlink">
    <!-- Generator: Sketch 47.1 (45422) - http://www.bohemiancoding.com/sketch -->
    <title>about</title>
    <desc>Created with Sketch.</desc>
    <defs></defs>
    <g id="Page-1" stroke="none" stroke-width="1" fill="none" fill-rule="evenodd">
        <g id="words" transform="translate(-26.000000, -216.000000)">
            <g id="about" transform="translate(26.000000, 216.000000)">
                <g id="A">
                    <path d="M1.06583153,152.398576 C16.0940418,124.566332 28.5518032,95.7221245 30.7311829,71.7882586 C32.1841027,55.8323481 32.6099577,38.2488928 32.008748,19.0378928 C30.9616861,6.25697387 33.2717578,-0.0628740559 38.9389631,0.0783490428 C44.6061683,0.219572141 67.7205962,0.290183691 108.282247,0.290183691 C112.898734,0.804345458 114.724122,3.56893615 113.758412,8.58395577 C112.309847,16.1064852 116.223321,84.5443252 119.251838,92.2587714 C122.280356,99.9732176 127.975731,134.768382 140.27852,148.687139 C152.581309,162.605896 136.118506,164.527614 119.251838,165.170796 C108.007393,165.599584 98.1366944,165.38519 89.6397416,164.527614 C83.7657801,162.827975 82.2972898,158.306154 85.2342705,150.962151 C89.6397416,139.946146 96.2248618,113.809314 72.8121531,111.298949 C49.3994443,108.788585 53.2678445,140.055981 55.5036234,143.334254 C57.7394023,146.612528 65.6159814,163.884432 48.1735822,164.527614 C36.545316,164.956402 22.0242832,164.141991 4.61048362,162.084382 C1.14269326,159.612456 -0.0388574344,156.383854 1.06583153,152.398576 Z" id="Path-48" fill="#000000"></path>
                    <path d="M64.5423377,68.6010668 C60.6441392,69.3351029 58.708878,67.9612121 58.7365541,64.4793942 C58.7642302,60.9975764 59.2588888,53.1832106 60.2205298,41.0362969 C63.0802551,31.0675331 67.1618593,26.2721335 72.4653425,26.6500981 C80.4205672,27.2170449 84.7783352,39.4006568 85.3189249,46.5636215 C85.6793179,51.3389313 86.1813089,57.0599119 86.8248979,63.7265631 C86.7914388,66.9762323 85.3367915,68.6010668 82.4609562,68.6010668 C79.5851209,68.6010668 73.6122481,68.6010668 64.5423377,68.6010668 Z" id="Path-49" fill="#FFFFFF"></path>
                </g>
                <g id="B" transform="translate(102.000000, 0.000000)">
                    <path d="M0.600954979,0.041415048 C2.70869275,-0.268133402 5.72167269,5.14238588 9.63989479,16.2729729 C15.5172279,32.9688534 28.177973,45.3941479 26.8440238,79.6246 C25.9547243,102.444901 20.2200146,125.415133 9.63989479,148.535296 C4.63264618,160.148151 6.40664438,165.689358 14.9618894,165.158918 C23.5171344,164.628477 48.8903153,164.628477 91.0814321,165.158918 C115.101178,157.798246 126.767348,141.702358 126.07994,116.871255 C125.392533,92.0401517 115.06762,75.5637544 95.1052011,67.4420632 C109.013906,48.8050893 114.178425,34.7163702 110.598757,25.1759058 C105.229255,10.8652093 99.0280473,2.04011566 87.5707831,0.916724878 C61.2495754,1.56949126 32.2596327,1.27772132 0.600954979,0.041415048 Z" id="Path-62" fill="#000000"></path>
                    <path d="M50.8945891,90.8392849 C51.2908294,85.0334709 57.6057228,80.4305292 67.5690806,80.4305292 C77.5324383,80.4305292 82.6813276,92.1155212 81.4408423,96.6450989 C80.200357,101.174677 76.103143,116.457486 64.0587789,115.296695 C52.0144148,114.135905 50.8945891,109.935907 50.8945891,102.643075 C50.8945891,95.3502422 50.4983488,96.6450989 50.8945891,90.8392849 Z" id="Path-65" fill="#FFFFFF"></path>
                    <path d="M49.8829747,59.2185309 C45.8228157,56.570547 50.3641703,43.3899444 51.4495858,40.5333966 C52.5350013,37.6768488 61.4648926,14.8722227 75.0157157,26.9099009 C84.0495978,34.9350197 82.4082378,43.5288872 70.0916357,52.6915035 C59.3259677,58.8081776 52.5897473,60.9838534 49.8829747,59.2185309 Z" id="Path-64" fill="#FFFFFF"></path>
                </g>
                <g id="O" transform="translate(191.000000, 1.000000)">
                    <path d="M0.5888698,0.524970518 C9.90735903,6.28283409 16.0775008,12.4272372 19.0992951,18.9581799 C23.6319866,28.754594 38.1209397,63.0034586 27.5994744,89.2906773 C17.0780091,115.577896 25.6993916,163.416329 47.7514142,163.788572 C62.4527625,164.036733 85.1142267,164.036733 115.735807,163.788572 C141.245651,149.891507 148.957605,125.058875 138.871669,89.2906773 C123.742765,35.6383801 129.407134,23.6040244 133.394168,15.7136729 C137.381203,7.82332141 136.262979,0.524970518 125.272099,0.524970518 C117.944846,0.524970518 76.3837696,0.524970518 0.5888698,0.524970518 Z" id="Path-55" fill="#000000"></path>
                    <path d="M64.776432,47.9813703 C68.2003829,30.0851989 71.9659251,23.1119131 84.1651566,24.4662223 C96.3643882,25.8205315 100.75444,39.940712 101.603998,53.4026258 C102.170369,62.3772351 102.453555,72.708029 102.453555,84.3950074 C99.8060214,96.8803719 93.7098886,102.798074 84.1651566,102.148112 C69.8480588,101.17317 64.3938497,92.582751 63.5957316,83.3863083 C62.7976135,74.1898656 61.3524812,65.8775417 64.776432,47.9813703 Z" id="Path-57" fill="#FFFFFF"></path>
                </g>
                <path d="M334.951283,28.2802975 C332.094714,15.9813079 321.543181,3.25948581 334.951283,2.62974291 C343.890018,2.2099143 355.937153,2 371.092688,2 C377.828017,7.74553518 377.828017,15.3087058 371.092688,24.6895118 C360.989693,38.7607209 352.921894,94.240654 371.092688,100.329559 C389.263481,106.418464 400.185976,107.740507 405.549217,86.6044999 C410.912458,65.4684929 405.417846,35.5557048 400.185976,28.2802975 C394.954105,21.0048903 379.439909,2 405.417846,2 C422.736472,2 432.558654,2.2099143 434.884393,2.62974291 C438.184477,3.43726922 439.119281,7.88779088 437.688806,15.9813079 C435.543092,28.1215834 429.089686,47.2258512 437.688806,74.4256511 C446.287925,101.625451 444.131868,163.372587 421.577978,164.994168 C406.542051,166.075221 383.163925,166.075221 351.443599,164.994168 C333.844875,156.839556 325.375611,144.481902 326.035806,127.921206 C326.696002,111.360509 328.715638,94.4064447 332.094714,77.0590135 C335.903473,52.739196 336.855663,36.479624 334.951283,28.2802975 Z" id="Path-66" fill="#000000"></path>
                <path d="M435.855425,59.2925147 C434.714858,46.1842976 434.714858,29.480994 435.855425,9.18260393 C436.796332,4.7919285 439.106662,2.50324413 442.786415,2.31655079 C446.466168,2.12985746 476.433153,2.0365108 532.687371,2.0365108 C538.150181,1.64012568 540.86366,4.471303 540.827809,10.5300428 C540.798624,15.4623114 547.242372,26.071851 547.459106,37.4179411 C547.641723,46.9779529 545.408353,57.5657406 544.477977,60.6622756 C542.443405,67.4338651 531.792461,70.9375113 527.224562,55.805205 C522.656663,40.6728988 522.846401,27.6693023 512.797429,27.63379 C506.098115,27.6101151 502.268196,30.8714988 501.307672,37.4179411 C501.279939,82.6214023 505.592487,113.041593 514.245317,128.678512 C527.224562,152.133891 529.431399,164.753955 518.559556,164.704237 C511.311661,164.671092 489.796269,164.687665 454.013381,164.753955 C447.672572,162.406083 448.231637,154.728658 455.690577,141.721679 C466.878987,122.211212 476.984778,45.144407 474.421803,37.4179411 C471.858828,29.6914752 468.334992,27.63379 463.197881,27.63379 C458.060771,27.63379 452.912499,31.6842236 452.015559,37.4179411 C451.11862,43.1516586 449.03273,54.7490038 447.786549,60.6622756 C446.540369,66.5755474 435.855425,64.136719 435.855425,59.2925147 Z" id="Path-60" fill="#000000"></path>
            </g>
        </g>
    </g>
</svg>