<?xml version="1.0" encoding="UTF-8"?>
<svg width="1073px" height="110px" viewBox="0 0 1073 110" version="1.1" xmlns="http://www.w3.org/2000/svg" xmlns:xlink="http://www.w3.org/1999/xlink">
    <!-- Generator: Sketch 47.1 (45422) - http://www.bohemiancoding.com/sketch -->
    <title>GET IN TOUCH</title>
    <desc>Created with Sketch.</desc>
    <defs></defs>
    <g id="Layout" stroke="none" stroke-width="1" fill="none" fill-rule="evenodd">
        <g id="Desktop" transform="translate(-34.000000, -145.000000)" fill="#EEEEEE">
            <path d="M123.376956,240.303941 C119.420907,244.712781 113.633441,248.264293 106.014384,250.958584 C98.3953263,253.652875 90.0437926,255 80.9595319,255 C66.9912602,255 55.8314622,250.713692 47.4798032,242.140949 C39.1281443,233.568205 34.6593411,221.640023 34.0732598,206.356045 L34,197.097528 C34,186.5653 35.8558964,177.368109 39.5677448,169.505678 C43.2795932,161.643247 48.5908756,155.59343 55.5017514,151.356045 C62.4126271,147.118661 70.4100753,145 79.4943359,145 C92.7788461,145 103.096165,148.049402 110.446601,154.148297 C117.797038,160.247191 122.082694,169.34641 123.303696,181.446226 L98.541884,181.446226 C97.662762,175.469799 95.7580262,171.207984 92.8276195,168.660655 C89.8972129,166.113325 85.7458657,164.839679 80.3734535,164.839679 C73.9265589,164.839679 68.9449423,167.582916 65.4284543,173.069472 C61.9119663,178.556028 60.129329,186.393848 60.0804889,196.583166 L60.0804889,203.049432 C60.0804889,213.728622 61.8997557,221.75014 65.538344,227.114228 C69.1769322,232.478317 74.9033494,235.160321 82.7177671,235.160321 C89.4088623,235.160321 94.3904789,233.666236 97.6627664,230.678023 L97.6627664,214.071476 L79.7873751,214.071476 L79.7873751,196.362725 L123.376956,196.362725 L123.376956,240.303941 Z M212.537494,208.193053 L172.098084,208.193053 L172.098084,233.690715 L219.863474,233.690715 L219.863474,253.530394 L146.383894,253.530394 L146.383894,146.543086 L220.009993,146.543086 L220.009993,166.456246 L172.098084,166.456246 L172.098084,189.014696 L212.537494,189.014696 L212.537494,208.193053 Z M323.602711,166.456246 L291.588179,166.456246 L291.588179,253.530394 L265.873989,253.530394 L265.873989,166.456246 L234.445534,166.456246 L234.445534,146.543086 L323.602711,146.543086 L323.602711,166.456246 Z M410.935114,253.530394 L385.294184,253.530394 L385.294184,146.543086 L410.935114,146.543086 L410.935114,253.530394 Z M525.956361,253.530394 L500.388691,253.530394 L462.586634,186.957248 L462.586634,253.530394 L436.872444,253.530394 L436.872444,146.543086 L462.586634,146.543086 L500.315431,213.116232 L500.315431,146.543086 L525.956361,146.543086 L525.956361,253.530394 Z M675.046776,166.456246 L643.032243,166.456246 L643.032243,253.530394 L617.318053,253.530394 L617.318053,166.456246 L585.889599,166.456246 L585.889599,146.543086 L675.046776,146.543086 L675.046776,166.456246 Z M782.229224,202.241149 C782.229224,212.675403 780.300069,221.909334 776.4417,229.94322 C772.583331,237.977105 767.101111,244.161635 759.994875,248.496994 C752.888639,252.832353 744.793512,255 735.709251,255 C726.62499,255 718.566493,252.905833 711.533517,248.717435 C704.500541,244.529037 699.018321,238.540453 695.086692,230.751503 C691.155063,222.962553 689.091599,214.02254 688.896239,203.931196 L688.896239,197.905812 C688.896239,187.422571 690.813184,178.176393 694.647133,170.167001 C698.481082,162.157609 703.975512,155.973079 711.130588,151.613226 C718.285664,147.253374 726.429631,145.07348 735.562731,145.07348 C744.598152,145.07348 752.656649,147.228881 759.738465,151.539746 C766.820281,155.850612 772.326921,161.986155 776.25855,169.94656 C780.190179,177.906965 782.180384,187.030677 782.229224,197.317969 L782.229224,202.241149 Z M756.075475,197.758851 C756.075475,187.128649 754.305048,179.058144 750.76414,173.547094 C747.223232,168.036045 742.156146,165.280561 735.562731,165.280561 C722.668942,165.280561 715.855849,174.979863 715.123247,194.378758 L715.049987,202.241149 C715.049987,212.72439 716.783785,220.782648 720.251433,226.416166 C723.719081,232.049683 728.871635,234.866399 735.709251,234.866399 C742.204986,234.866399 747.211022,232.098669 750.72751,226.563126 C754.243998,221.027583 756.026635,213.067298 756.075475,202.682031 L756.075475,197.758851 Z M887.213878,146.543086 L887.213878,216.569806 C887.213878,224.505718 885.52892,231.376056 882.158952,237.181029 C878.788984,242.986001 873.953886,247.407021 867.653512,250.444222 C861.353137,253.481422 853.905132,255 845.309273,255 C832.317803,255 822.085953,251.61994 814.613416,244.859719 C807.140879,238.099499 803.331408,228.841074 803.184887,217.084168 L803.184887,146.543086 L829.045597,146.543086 L829.045597,217.59853 C829.338638,229.306449 834.759809,235.160321 845.309273,235.160321 C850.632845,235.160321 854.662093,233.690729 857.39714,230.751503 C860.132186,227.812277 861.499688,223.036105 861.499688,216.422846 L861.499688,146.543086 L887.213878,146.543086 Z M997.619758,217.304609 C997.277877,224.75065 995.275462,231.32707 991.612454,237.034068 C987.949446,242.741066 982.809101,247.162086 976.191266,250.297261 C969.573431,253.432436 962.015537,255 953.517358,255 C939.500246,255 928.462547,250.419774 920.403928,241.259185 C912.34531,232.098596 908.316061,219.166194 908.316061,202.46159 L908.316061,197.171009 C908.316061,186.687768 910.135328,177.515069 913.773916,169.652639 C917.412505,161.790208 922.650528,155.715898 929.488144,151.429526 C936.325759,147.143154 944.237738,145 953.224319,145 C966.166948,145 976.569736,148.416799 984.432994,155.250501 C992.296252,162.084203 996.765055,171.501833 997.839537,183.503674 L972.198607,183.503674 C972.003247,176.988389 970.367127,172.31019 967.2902,169.468938 C964.213273,166.627686 959.524693,165.207081 953.224319,165.207081 C946.826264,165.207081 942.137684,167.607413 939.158437,172.40815 C936.17919,177.208886 934.61633,184.875254 934.46981,195.407482 L934.46981,202.975952 C934.46981,214.389948 935.898362,222.546179 938.755508,227.44489 C941.612655,232.343601 946.533222,234.792919 953.517358,234.792919 C959.427011,234.792919 963.944654,233.396808 967.070421,230.604542 C970.196188,227.812277 971.856727,223.379011 972.052087,217.304609 L997.619758,217.304609 Z M1107,253.530394 L1081.43233,253.530394 L1081.43233,208.854375 L1043.55701,208.854375 L1043.55701,253.530394 L1017.84282,253.530394 L1017.84282,146.543086 L1043.55701,146.543086 L1043.55701,189.014696 L1081.43233,189.014696 L1081.43233,146.543086 L1107,146.543086 L1107,253.530394 Z" id="GET-IN-TOUCH"></path>
        </g>
    </g>
</svg>