<?xml version="1.0" encoding="UTF-8"?>
<svg width="754px" height="170px" viewBox="0 0 754 170" version="1.1" xmlns="http://www.w3.org/2000/svg" xmlns:xlink="http://www.w3.org/1999/xlink">
    <!-- Generator: Sketch 47.1 (45422) - http://www.bohemiancoding.com/sketch -->
    <title>contact</title>
    <desc>Created with Sketch.</desc>
    <defs></defs>
    <g id="Page-1" stroke="none" stroke-width="1" fill="none" fill-rule="evenodd">
        <g id="words" transform="translate(-26.000000, -406.000000)">
            <g id="contact" transform="translate(26.000000, 406.000000)">
                <path d="M79.4542337,49.8601494 C76.9078725,52.0601261 68.4732807,60.1549503 76.9078725,65.2284557 C82.5309337,68.6107927 91.3152062,68.6107927 103.26069,65.2284557 C105.956477,64.2905806 108.273188,60.8284245 110.210823,54.8419875 C112.148458,48.8555504 112.148458,34.4413325 110.210823,11.5993337 C107.03927,4.46175469 101.120283,1.30453273 92.4538635,2.12766783 C83.7874436,2.95080292 56.5541302,3.36237047 10.7539231,3.36237047 C3.60878129,4.5730339 3.0945384,9.65883959 9.2111944,18.6197875 C18.3861784,32.0612094 13.5400246,60.3925611 7.29996759,82.8273323 C4.04890841,94.5158103 4.13966698,129.555571 5.77756509,148.269583 C6.19224744,153.007589 -0.818006259,160.648582 0.0794526546,163.306269 C2.44101075,170.299661 15.41221,167.084166 31.9134163,167.622822 C63.6072946,168.657419 86.0251312,169.174718 99.1669261,169.174718 C104.260904,169.671619 106.945816,166.860417 107.221663,160.741114 C107.497511,154.62181 108.073177,132.576936 108.948664,94.6064901 C107.819004,89.3291759 104.558425,88.8145525 99.1669261,93.0626199 C91.0796782,99.4347209 71.8447923,116.076217 55.4946726,102.776262 C39.1445528,89.4763067 39.181004,48.0486217 44.7472058,38.666024 C50.3134075,29.2834263 55.7664724,21.6182463 66.3371725,23.3577335 C76.9078725,25.0972208 90.8249583,37.8289735 79.4542337,49.8601494 Z" id="Path-59" fill="#000000"></path>
                <g id="O" transform="translate(89.000000, 2.000000)">
                    <path d="M0.5888698,0.524970518 C9.90735903,6.28283409 16.0775008,12.4272372 19.0992951,18.9581799 C23.6319866,28.754594 38.1209397,63.0034586 27.5994744,89.2906773 C17.0780091,115.577896 25.6993916,163.416329 47.7514142,163.788572 C62.4527625,164.036733 85.1142267,164.036733 115.735807,163.788572 C141.245651,149.891507 148.957605,125.058875 138.871669,89.2906773 C123.742765,35.6383801 129.407134,23.6040244 133.394168,15.7136729 C137.381203,7.82332141 136.262979,0.524970518 125.272099,0.524970518 C117.944846,0.524970518 76.3837696,0.524970518 0.5888698,0.524970518 Z" id="Path-55" fill="#000000"></path>
                    <path d="M64.776432,47.9813703 C68.2003829,30.0851989 71.9659251,23.1119131 84.1651566,24.4662223 C96.3643882,25.8205315 100.75444,39.940712 101.603998,53.4026258 C102.170369,62.3772351 102.453555,72.708029 102.453555,84.3950074 C99.8060214,96.8803719 93.7098886,102.798074 84.1651566,102.148112 C69.8480588,101.17317 64.3938497,92.582751 63.5957316,83.3863083 C62.7976135,74.1898656 61.3524812,65.8775417 64.776432,47.9813703 Z" id="Path-57" fill="#FFFFFF"></path>
                </g>
                <path d="M221.065016,16.1795063 C217.375522,6.66311583 219.443117,1.93682626 227.267799,2.00063755 C235.092482,2.06444884 248.202157,2.09635448 266.596825,2.09635448 C269.42012,13.4845428 276.578328,31.9486942 288.071451,57.4888087 C299.564573,83.0289231 305.311135,75.1886426 305.311135,33.967967 C292.994137,12.5926027 294.587293,1.93682626 310.0906,2.00063755 C325.593908,2.06444884 334.730975,2.09635448 337.501804,2.09635448 C345.515084,1.8155848 347.904462,6.50996874 344.669938,16.1795063 C339.818153,30.6838126 325.169208,88.9732994 344.669938,131.971474 C364.170669,174.969648 307.448496,165.697868 291.385384,165.697868 C275.322272,165.697868 286.686892,139.78475 286.484809,134.271353 C286.506851,117.782983 282.592285,107.996779 274.741111,104.91274 C267.767984,104.400719 264.072522,105.864821 263.654724,109.305049 C263.236927,112.745277 263.864141,126.883603 265.536366,151.720028 C267.259327,161.038588 264.989657,165.697868 258.727355,165.697868 C252.465054,165.697868 240.593291,165.274805 223.112068,164.42868 C216.527746,163.461458 215.263223,158.193432 219.318498,148.6246 C223.373773,139.055769 227.294701,124.485149 231.081281,104.91274 C234.65508,78.4672516 234.65508,58.6345588 231.081281,45.4146619 C227.507483,32.194765 224.168727,22.4497131 221.065016,16.1795063 Z" id="Path-63" fill="#000000"></path>
                <path d="M338.855425,59.2925147 C337.714858,46.1842976 337.714858,29.480994 338.855425,9.18260393 C339.796332,4.7919285 342.106662,2.50324413 345.786415,2.31655079 C349.466168,2.12985746 379.433153,2.0365108 435.687371,2.0365108 C441.150181,1.64012568 443.86366,4.471303 443.827809,10.5300428 C443.798624,15.4623114 450.242372,26.071851 450.459106,37.4179411 C450.641723,46.9779529 448.408353,57.5657406 447.477977,60.6622756 C445.443405,67.4338651 434.792461,70.9375113 430.224562,55.805205 C425.656663,40.6728988 425.846401,27.6693023 415.797429,27.63379 C409.098115,27.6101151 405.268196,30.8714988 404.307672,37.4179411 C404.279939,82.6214023 408.592487,113.041593 417.245317,128.678512 C430.224562,152.133891 432.431399,164.753955 421.559556,164.704237 C414.311661,164.671092 392.796269,164.687665 357.013381,164.753955 C350.672572,162.406083 351.231637,154.728658 358.690577,141.721679 C369.878987,122.211212 379.984778,45.144407 377.421803,37.4179411 C374.858828,29.6914752 371.334992,27.63379 366.197881,27.63379 C361.060771,27.63379 355.912499,31.6842236 355.015559,37.4179411 C354.11862,43.1516586 352.03273,54.7490038 350.786549,60.6622756 C349.540369,66.5755474 338.855425,64.136719 338.855425,59.2925147 Z" id="Path-60" fill="#000000"></path>
                <g id="A" transform="translate(418.000000, 2.000000)">
                    <path d="M1.06583153,152.398576 C16.0940418,124.566332 28.5518032,95.7221245 30.7311829,71.7882586 C32.1841027,55.8323481 32.6099577,38.2488928 32.008748,19.0378928 C30.9616861,6.25697387 33.2717578,-0.0628740559 38.9389631,0.0783490428 C44.6061683,0.219572141 67.7205962,0.290183691 108.282247,0.290183691 C112.898734,0.804345458 114.724122,3.56893615 113.758412,8.58395577 C112.309847,16.1064852 116.223321,84.5443252 119.251838,92.2587714 C122.280356,99.9732176 127.975731,134.768382 140.27852,148.687139 C152.581309,162.605896 136.118506,164.527614 119.251838,165.170796 C108.007393,165.599584 98.1366944,165.38519 89.6397416,164.527614 C83.7657801,162.827975 82.2972898,158.306154 85.2342705,150.962151 C89.6397416,139.946146 96.2248618,113.809314 72.8121531,111.298949 C49.3994443,108.788585 53.2678445,140.055981 55.5036234,143.334254 C57.7394023,146.612528 65.6159814,163.884432 48.1735822,164.527614 C36.545316,164.956402 22.0242832,164.141991 4.61048362,162.084382 C1.14269326,159.612456 -0.0388574344,156.383854 1.06583153,152.398576 Z" id="Path-48" fill="#000000"></path>
                    <path d="M64.5423377,68.6010668 C60.6441392,69.3351029 58.708878,67.9612121 58.7365541,64.4793942 C58.7642302,60.9975764 59.2588888,53.1832106 60.2205298,41.0362969 C63.0802551,31.0675331 67.1618593,26.2721335 72.4653425,26.6500981 C80.4205672,27.2170449 84.7783352,39.4006568 85.3189249,46.5636215 C85.6793179,51.3389313 86.1813089,57.0599119 86.8248979,63.7265631 C86.7914388,66.9762323 85.3367915,68.6010668 82.4609562,68.6010668 C79.5851209,68.6010668 73.6122481,68.6010668 64.5423377,68.6010668 Z" id="Path-49" fill="#FFFFFF"></path>
                </g>
                <path d="M611.454234,48.8601494 C608.907873,51.0601261 600.473281,59.1549503 608.907873,64.2284557 C614.530934,67.6107927 623.315206,67.6107927 635.26069,64.2284557 C637.956477,63.2905806 640.273188,59.8284245 642.210823,53.8419875 C644.148458,47.8555504 644.148458,33.4413325 642.210823,10.5993337 C639.03927,3.46175469 633.120283,0.304532734 624.453864,1.12766783 C615.787444,1.95080292 588.55413,2.36237047 542.753923,2.36237047 C535.608781,3.5730339 535.094538,8.65883959 541.211194,17.6197875 C550.386178,31.0612094 545.540025,59.3925611 539.299968,81.8273323 C536.048908,93.5158103 536.139667,128.555571 537.777565,147.269583 C538.192247,152.007589 531.181994,159.648582 532.079453,162.306269 C534.441011,169.299661 547.41221,166.084166 563.913416,166.622822 C595.607295,167.657419 618.025131,168.174718 631.166926,168.174718 C636.260904,168.671619 638.945816,165.860417 639.221663,159.741114 C639.497511,153.62181 640.073177,131.576936 640.948664,93.6064901 C639.819004,88.3291759 636.558425,87.8145525 631.166926,92.0626199 C623.079678,98.4347209 603.844792,115.076217 587.494673,101.776262 C571.144553,88.4763067 571.181004,47.0486217 576.747206,37.666024 C582.313408,28.2834263 587.766472,20.6182463 598.337172,22.3577335 C608.907873,24.0972208 622.824958,36.8289735 611.454234,48.8601494 Z" id="Path-59" fill="#000000"></path>
                <path d="M641.855425,58.2925147 C640.714858,45.1842976 640.714858,28.480994 641.855425,8.18260393 C628.744818,3.60523517 624.029391,1.22320413 627.709144,1.0365108 C631.388896,0.849817463 668.381639,0.849817463 738.687371,1.0365108 C744.150181,0.640125677 746.86366,3.471303 746.827809,9.53004276 C746.798624,14.4623114 753.242372,25.071851 753.459106,36.4179411 C753.641723,45.9779529 751.408353,56.5657406 750.477977,59.6622756 C748.443405,66.4338651 737.792461,69.9375113 733.224562,54.805205 C728.656663,39.6728988 728.846401,26.6693023 718.797429,26.63379 C712.098115,26.6101151 708.268196,29.8714988 707.307672,36.4179411 C707.279939,81.6214023 711.592487,112.041593 720.245317,127.678512 C733.224562,151.133891 735.431399,163.753955 724.559556,163.704237 C717.311661,163.671092 695.796269,163.687665 660.013381,163.753955 C653.672572,161.406083 654.231637,153.728658 661.690577,140.721679 C672.878987,121.211212 682.984778,44.144407 680.421803,36.4179411 C677.858828,28.6914752 674.334992,26.63379 669.197881,26.63379 C664.060771,26.63379 658.912499,30.6842236 658.015559,36.4179411 C657.11862,42.1516586 655.03273,53.7490038 653.786549,59.6622756 C652.540369,65.5755474 641.855425,63.136719 641.855425,58.2925147 Z" id="Path-60" fill="#000000"></path>
            </g>
        </g>
    </g>
</svg>