<?xml version="1.0" encoding="UTF-8"?>
<svg width="1211px" height="170px" viewBox="0 0 1211 170" version="1.1" xmlns="http://www.w3.org/2000/svg" xmlns:xlink="http://www.w3.org/1999/xlink">
    <!-- Generator: Sketch 47.1 (45422) - http://www.bohemiancoding.com/sketch -->
    <title>experiments</title>
    <desc>Created with Sketch.</desc>
    <defs></defs>
    <g id="Page-1" stroke="none" stroke-width="1" fill="none" fill-rule="evenodd">
        <g id="words" transform="translate(-26.000000, -600.000000)">
            <g id="experiments" transform="translate(26.000000, 600.000000)">
                <path d="M5.69548203,15.0346521 C12.6654822,27.9541567 35.248521,87.6842184 5.69548203,150.951479 C-1.26878065,163.122153 2.02007501,168.930245 15.562049,168.375757 L100.269809,168.375757 C106.977045,169.127924 110.923699,165.006325 112.109771,156.010959 C113.295842,147.015593 113.295842,127.137525 112.109771,96.376755 C108.570335,91.3112403 104.108234,91.9309628 98.7234684,98.2359224 C90.64632,107.693362 66.7337646,123.285757 57.5735177,111.552543 C48.4132708,99.8193282 54.666834,80.8703497 70.3555978,80.6435135 C80.8147737,80.4922893 85.1865945,80.5679014 83.4710602,80.8703497 C88.834783,80.4559798 91.8338746,78.4405247 92.468335,74.8239845 C93.1027954,71.2074442 93.1027954,66.3882902 92.468335,60.3665225 C93.227677,57.0778448 90.6486593,55.6426729 84.7312818,56.061007 C75.8552156,56.688508 58.7035901,58.6874789 57.5735177,44.1321459 C56.4434453,29.5768129 82.4380347,28.7971805 98.7234684,43.0240306 C109.580424,52.5085973 112.960069,42.1527414 108.862402,11.9564627 C107.639019,6.01029079 104.259374,3.39697186 98.7234684,4.11650585 C93.1875628,4.83603985 60.27974,5.23100197 0,5.30139222 C1.96290922,4.51146798 3.86140322,7.75588795 5.69548203,15.0346521 Z" id="Path-58" fill="#000000"></path>
                <path d="M115.567843,4 L151.652757,5.26397425 C158.378057,3.98487487 160.752784,8.95791223 158.77694,20.1830863 C155.813173,37.0208474 159.062175,54.4491335 173.6292,56.4324061 C188.196226,58.4156786 193.276066,28.3291795 187.653096,16.7965769 C183.90445,9.10817512 186.513443,4.8426495 195.480076,4 L228.266636,5.26397425 C234.504581,6.2534847 236.993279,10.6673623 235.732731,18.505607 C233.841908,30.2629741 208.381949,72.2127114 204.271817,77.9355775 C200.161685,83.6584435 244.770161,133.211318 242.493254,158.553382 C241.522936,169.353061 238.801543,167.348152 235.732731,167.867101 C231.32495,168.612475 222.415806,168.534555 216.053235,167.867101 C203.22336,166.964138 193.026477,166.964138 185.462586,167.867101 C178.396016,165.798986 176.629374,161.027681 180.162659,153.553186 C185.462586,142.341445 192.582656,118.566216 173.6292,109.876172 C154.675744,101.186127 156.857382,141.284888 158.77694,143.321504 C160.696498,145.358121 168.785494,164.981819 158.77694,167.867101 C152.104571,169.790622 134.403773,169.790622 105.674548,167.867101 C102.377082,167.477117 101.298926,164.372544 102.44008,158.553382 C104.15181,149.824639 107.134288,116.961582 142.110458,81.8387179 C115.663539,43.6592787 106.816001,17.7130394 115.567843,4 Z" id="Path-67" fill="#000000"></path>
                <g id="P" transform="translate(235.000000, 5.000000)">
                    <path d="M8.69978626,0.327916629 C1.94078452,0.581448846 0.25103409,4.49099921 3.63053496,12.0565677 C8.69978626,23.4049205 19.6406765,53.0765481 18.376498,71.6568376 C17.1123195,90.2371272 9.97441251,133.390539 3.63053496,146.038593 C-0.598716746,154.470629 -0.598716746,160.088736 3.63053496,162.892913 L77.143037,162.892913 C82.4114922,160.970526 83.728606,156.783065 81.0943784,150.330531 C77.143037,140.65173 28.3582843,108.932342 91.3895974,74.8496719 C154.42091,40.7670017 96.6489978,0.327916629 83.8630338,0.327916629 C75.3390578,0.327916629 50.2846419,0.327916629 8.69978626,0.327916629 Z" id="Path-50" fill="#000000"></path>
                    <path d="M47.4655188,56.9124536 C47.4655188,61.0681871 47.4655188,66.1130812 47.4655188,72.0471361 C47.3249159,76.9376726 48.7379753,77.5068088 51.7046971,73.7545446 C54.6714188,70.0022804 63.7228851,60.5164069 78.8590958,45.2969239 C84.1176453,37.4807569 84.1176453,31.0519074 78.8590958,26.0103755 C73.6005464,20.9688436 66.8583304,19.8449372 58.6324478,22.6386562 C51.1878285,26.7894991 47.4655188,38.2140983 47.4655188,56.9124536 Z" id="Path-52" fill="#FFFFFF"></path>
                </g>
                <path d="M331.695482,15.0346521 C338.665482,27.9541567 361.248521,87.6842184 331.695482,150.951479 C324.731219,163.122153 328.020075,168.930245 341.562049,168.375757 L426.269809,168.375757 C432.977045,169.127924 436.923699,165.006325 438.109771,156.010959 C439.295842,147.015593 439.295842,127.137525 438.109771,96.376755 C434.570335,91.3112403 430.108234,91.9309628 424.723468,98.2359224 C416.64632,107.693362 392.733765,123.285757 383.573518,111.552543 C374.413271,99.8193282 380.666834,80.8703497 396.355598,80.6435135 C406.814774,80.4922893 411.186594,80.5679014 409.47106,80.8703497 C414.834783,80.4559798 417.833875,78.4405247 418.468335,74.8239845 C419.102795,71.2074442 419.102795,66.3882902 418.468335,60.3665225 C419.227677,57.0778448 416.648659,55.6426729 410.731282,56.061007 C401.855216,56.688508 384.70359,58.6874789 383.573518,44.1321459 C382.443445,29.5768129 408.438035,28.7971805 424.723468,43.0240306 C435.580424,52.5085973 438.960069,42.1527414 434.862402,11.9564627 C433.639019,6.01029079 430.259374,3.39697186 424.723468,4.11650585 C419.187563,4.83603985 381.029241,5.27690761 310.248504,5.43910914 C322.71241,4.55737362 329.861403,7.75588795 331.695482,15.0346521 Z" id="Path-58" fill="#000000"></path>
                <g id="R" transform="translate(412.000000, 4.000000)">
                    <path d="M12.5955221,0.505770102 C9.5919864,1.20945013 6.81795516,1.69754986 4.27342835,1.97006931 C-3.03295958,2.75258524 4.19721801,3.54938876 5.70794564,7.11421864 C9.15782253,15.2548152 38.9704086,43.2527124 38.0504414,51.75128 C37.1304742,60.2498477 47.960491,99.8090861 38.0504414,126.317495 C31.4437417,143.989768 20.6629098,152.567874 5.70794564,152.051814 C-1.75994144,160.264746 -0.611238641,164.251271 9.15405404,164.011387 C18.9193467,163.771503 36.7767737,163.771503 62.726335,164.011387 C72.1485794,163.667636 74.5041405,158.946621 69.7930183,149.848344 C65.0818961,140.750066 63.7476964,128.496203 65.7904192,113.086752 C71.6923053,104.335936 78.3942167,104.335936 85.8961533,113.086752 C93.3980899,121.837569 94.0620984,134.825923 87.888179,152.051814 C87.2216974,160.024862 89.4381506,164.011387 94.5375385,164.011387 C99.6369264,164.011387 112.158496,164.011387 132.102246,164.011387 C139.646224,164.918989 142.835197,160.197974 141.669163,149.848344 C139.920112,134.323898 133.521447,97.4340258 104.050966,74.8410417 C121.065105,65.8623788 153.125887,23.7643788 104.050966,0.505770102 C68.6655949,0.505770102 38.1804469,0.505770102 12.5955221,0.505770102 Z" id="Path-53" fill="#000000"></path>
                    <path d="M93.9440835,23.8285647 C87.8735808,16.9433864 76.9580255,16.6169568 70.7087888,30.7137431 C64.4595521,44.8105294 66.272214,60.6123384 70.7087888,59.5426291 C82.0504003,57.8575945 92.077008,46.3211007 95.6964933,40.7577312 C99.3159785,35.1943617 100.014586,30.7137431 93.9440835,23.8285647 Z" id="Path-54" fill="#FFFFFF"></path>
                </g>
                <path d="M564.379303,24.2906588 C560.88622,15.0831326 553.787819,3.16531913 566.377103,3.04132978 C574.76996,2.95867022 589.015346,3 609.113262,3.16531913 C618.180201,5.1514771 619.993473,10.6238895 614.553076,19.5825563 C606.392482,33.0205565 596.101667,89.1493108 614.553076,128.399797 C626.854016,154.566788 624.26307,167.650284 606.780239,167.650284 L558.695003,167.650284 C549.561703,164.972579 548.558728,157.761406 555.686078,146.016762 C566.377103,128.399797 581.239104,74.395264 564.379303,24.2906588 Z" id="Path-68" fill="#000000"></path>
                <path d="M618.111976,151.255573 C620.920339,141.159933 639.116038,90.4445071 638.048746,72.6132049 C636.981455,54.7819027 634.524694,32.469199 628.596081,18.2119663 C624.643673,8.70714449 627.794561,2.97687524 638.048746,1.02115855 L673.974884,1.02115855 C681.024152,0.669382949 684.018175,4.70399356 682.956953,13.1249904 C681.365119,25.7564856 672.475966,60.1635698 700.288002,64.0203986 C718.829359,66.5916178 725.239545,50.568766 719.518561,15.9518433 C717.566839,5.99805346 720.828567,1.02115855 729.303745,1.02115855 C737.778922,1.02115855 750.666385,1.02115855 767.966134,1.02115855 C777.04164,2.82650987 779.310517,9.01277525 774.772763,19.5799547 C771.16282,27.9865195 765.030521,56.0597157 766.38983,84.3108344 C767.59353,109.327843 775.783199,134.605025 780.463424,144.715492 C787.107086,159.06748 782.941323,166.473039 767.966134,166.932171 L723.648951,166.932171 C717.570193,166.910891 716.652644,162.0496 720.896306,152.3483 C725.139968,142.646999 728.335096,131.594424 730.48169,119.190576 C731.416182,111.18679 730.052241,107.045115 726.389867,106.765549 C720.896306,106.346201 718.575716,111.698024 717.334289,114.788885 C716.092861,117.879746 706.666572,147.395417 700.288002,146.769816 C693.909432,146.144215 686.340634,122.812221 685.657361,114.788885 C685.201845,109.439994 681.764296,107.14873 675.344715,107.915091 C671.354786,109.573586 670.128999,112.995495 671.667353,118.180817 C673.205707,123.366139 675.664124,133.522384 679.042605,148.649552 C682.33027,159.256486 681.09764,164.955322 675.344715,165.746062 C666.715328,166.932171 627.382241,168.56823 620.920339,166.932171 C614.458437,165.296112 615.303613,161.351213 618.111976,151.255573 Z" id="Path-51" fill="#000000"></path>
                <path d="M774.695482,12.0346521 C781.665482,24.9541567 804.248521,84.6842184 774.695482,147.951479 C767.731219,160.122153 771.020075,165.930245 784.562049,165.375757 L869.269809,165.375757 C875.977045,166.127924 879.923699,162.006325 881.109771,153.010959 C882.295842,144.015593 882.295842,124.137525 881.109771,93.376755 C877.570335,88.3112403 873.108234,88.9309628 867.723468,95.2359224 C859.64632,104.693362 835.733765,120.285757 826.573518,108.552543 C817.413271,96.8193282 823.666834,77.8703497 839.355598,77.6435135 C849.814774,77.4922893 854.186594,77.5679014 852.47106,77.8703497 C857.834783,77.4559798 860.833875,75.4405247 861.468335,71.8239845 C862.102795,68.2074442 862.102795,63.3882902 861.468335,57.3665225 C862.227677,54.0778448 859.648659,52.6426729 853.731282,53.061007 C844.855216,53.688508 827.70359,55.6874789 826.573518,41.1321459 C825.443445,26.5768129 851.438035,25.7971805 867.723468,40.0240306 C878.580424,49.5085973 881.960069,39.1527414 877.862402,8.95646265 C876.639019,3.01029079 873.259374,0.396971859 867.723468,1.11650585 C862.187563,1.83603985 829.27974,2.23100197 769,2.30139222 C770.962909,1.51146798 772.861403,4.75588795 774.695482,12.0346521 Z" id="Path-58" fill="#000000"></path>
                <path d="M875.065016,15.1795063 C871.375522,5.66311583 873.443117,0.936826256 881.267799,1.00063755 C889.092482,1.06444884 902.202157,1.09635448 920.596825,1.09635448 C923.42012,12.4845428 930.578328,30.9486942 942.071451,56.4888087 C953.564573,82.0289231 959.311135,74.1886426 959.311135,32.967967 C946.994137,11.5926027 948.587293,0.936826256 964.0906,1.00063755 C979.593908,1.06444884 988.730975,1.09635448 991.501804,1.09635448 C999.515084,0.815584804 1001.90446,5.50996874 998.669938,15.1795063 C993.818153,29.6838126 979.169208,87.9732994 998.669938,130.971474 C1018.17067,173.969648 961.448496,164.697868 945.385384,164.697868 C929.322272,164.697868 940.686892,138.78475 940.484809,133.271353 C940.506851,116.782983 936.592285,106.996779 928.741111,103.91274 C921.767984,103.400719 918.072522,104.864821 917.654724,108.305049 C917.236927,111.745277 917.864141,125.883603 919.536366,150.720028 C921.259327,160.038588 918.989657,164.697868 912.727355,164.697868 C906.465054,164.697868 894.593291,164.274805 877.112068,163.42868 C870.527746,162.461458 869.263223,157.193432 873.318498,147.6246 C877.373773,138.055769 881.294701,123.485149 885.081281,103.91274 C888.65508,77.4672516 888.65508,57.6345588 885.081281,44.4146619 C881.507483,31.194765 878.168727,21.4497131 875.065016,15.1795063 Z" id="Path-63" fill="#000000"></path>
                <path d="M997.355956,58.3960239 C996.215389,45.2878068 996.215389,28.5845032 997.355956,8.28611313 C984.245349,3.70874438 979.529922,1.32671333 983.209674,1.14002 C986.889427,0.953326667 1023.88217,0.953326667 1094.1879,1.14002 C1100.67675,-0.154657673 1103.90325,2.22737337 1103.8674,8.28611313 C1103.83822,13.2183818 1108.7429,25.1753602 1108.95964,36.5214503 C1109.14225,46.0814621 1106.90888,56.6692498 1105.97851,59.7657848 C1103.94394,66.5373743 1093.29299,70.0410205 1088.72509,54.9087142 C1084.15719,39.776408 1084.34693,26.7728115 1074.29796,26.7372992 C1067.59865,26.7136244 1063.76873,29.975008 1062.8082,36.5214503 C1062.78047,81.7249115 1067.09302,112.145102 1075.74585,127.782021 C1088.72509,151.2374 1090.93193,163.857464 1080.06009,163.807746 C1072.81219,163.774602 1051.2968,163.791174 1015.51391,163.857464 C1009.1731,161.509592 1009.73217,153.832167 1017.19111,140.825189 C1028.37952,121.314721 1038.48531,44.2479162 1035.92233,36.5214503 C1033.35936,28.7949844 1029.83552,26.7372992 1024.69841,26.7372992 C1019.5613,26.7372992 1014.41303,30.7877328 1013.51609,36.5214503 C1012.61915,42.2551678 1010.53326,53.852513 1009.28708,59.7657848 C1008.0409,65.6790566 997.355956,63.2402282 997.355956,58.3960239 Z" id="Path-60" fill="#000000"></path>
                <path d="M1112.16143,0 C1103.12072,0.395184383 1100.86054,6.95435374 1105.38089,19.6775081 C1109.90125,32.4006624 1109.90125,44.9727751 1105.38089,57.3938461 C1101.74599,64.9281008 1111.64392,72.0983698 1135.07469,78.9046532 C1170.22085,89.1140783 1146.09083,105.934671 1135.07469,105.318124 C1127.7306,104.907092 1117.83267,100.460525 1105.38089,91.9784222 C1097.54059,86.3616537 1093.75118,88.3539178 1094.01266,97.9552146 C1094.27413,107.556511 1094.40487,124.978299 1094.40487,150.220578 C1094.82878,158.091581 1098.48745,162.87044 1105.38089,164.557154 C1112.27434,166.243868 1134.54382,166.243868 1172.18934,164.557154 C1196.33025,156.70794 1209.10045,142.079185 1210.49994,120.670888 C1211.89943,99.2625915 1196.19407,79.9574878 1163.38386,62.7555771 C1139.71178,55.2777774 1131.94527,43.6505416 1140.08432,27.8738699 C1149.48753,18.8074091 1158.42022,18.5112785 1166.88239,26.9854781 C1168.42291,30.2368013 1167.25674,33.9790209 1163.38386,38.2121371 C1157.57454,44.5618113 1163.68932,50.6124705 1167.93933,50.9130846 C1170.77267,51.113494 1178.873,51.2136987 1192.24031,51.2136987 C1195.77412,51.8756895 1197.694,48.0031504 1197.99995,39.5960815 C1198.30589,31.1890125 1198.15292,20.6848402 1197.54103,8.0835644 C1197.2676,4.04803418 1194.08157,1.69189089 1187.98294,1.01513453 C1181.88431,0.338378178 1156.61047,0 1112.16143,0 Z" id="Path-61" fill="#000000"></path>
            </g>
        </g>
    </g>
</svg>