<?xml version="1.0" encoding="UTF-8"?>
<svg width="823px" height="168px" viewBox="0 0 823 168" version="1.1" xmlns="http://www.w3.org/2000/svg" xmlns:xlink="http://www.w3.org/1999/xlink">
    <!-- Generator: Sketch 47.1 (45422) - http://www.bohemiancoding.com/sketch -->
    <title>projects</title>
    <desc>Created with Sketch.</desc>
    <defs></defs>
    <g id="Page-1" stroke="none" stroke-width="1" fill="none" fill-rule="evenodd">
        <g id="words" transform="translate(-26.000000, -40.000000)">
            <g id="projects" transform="translate(26.000000, 40.000000)">
                <g id="P">
                    <path d="M8.69978626,0.327916629 C1.94078452,0.581448846 0.25103409,4.49099921 3.63053496,12.0565677 C8.69978626,23.4049205 19.6406765,53.0765481 18.376498,71.6568376 C17.1123195,90.2371272 9.97441251,133.390539 3.63053496,146.038593 C-0.598716746,154.470629 -0.598716746,160.088736 3.63053496,162.892913 L77.143037,162.892913 C82.4114922,160.970526 83.728606,156.783065 81.0943784,150.330531 C77.143037,140.65173 28.3582843,108.932342 91.3895974,74.8496719 C154.42091,40.7670017 96.6489978,0.327916629 83.8630338,0.327916629 C75.3390578,0.327916629 50.2846419,0.327916629 8.69978626,0.327916629 Z" id="Path-50" fill="#000000"></path>
                    <path d="M47.4655188,56.9124536 C47.4655188,61.0681871 47.4655188,66.1130812 47.4655188,72.0471361 C47.3249159,76.9376726 48.7379753,77.5068088 51.7046971,73.7545446 C54.6714188,70.0022804 63.7228851,60.5164069 78.8590958,45.2969239 C84.1176453,37.4807569 84.1176453,31.0519074 78.8590958,26.0103755 C73.6005464,20.9688436 66.8583304,19.8449372 58.6324478,22.6386562 C51.1878285,26.7894991 47.4655188,38.2140983 47.4655188,56.9124536 Z" id="Path-52" fill="#FFFFFF"></path>
                </g>
                <g id="R" transform="translate(61.000000, 0.000000)">
                    <path d="M29.4609898,0.505770102 C11.3257091,-0.515661932 3.40802772,1.68715425 5.70794564,7.11421864 C9.15782253,15.2548152 38.9704086,43.2527124 38.0504414,51.75128 C37.1304742,60.2498477 47.960491,99.8090861 38.0504414,126.317495 C31.4437417,143.989768 20.6629098,152.567874 5.70794564,152.051814 C-1.75994144,160.264746 -0.611238641,164.251271 9.15405404,164.011387 C18.9193467,163.771503 36.7767737,163.771503 62.726335,164.011387 C72.1485794,163.667636 74.5041405,158.946621 69.7930183,149.848344 C65.0818961,140.750066 63.7476964,128.496203 65.7904192,113.086752 C71.6923053,104.335936 78.3942167,104.335936 85.8961533,113.086752 C93.3980899,121.837569 94.0620984,134.825923 87.888179,152.051814 C87.2216974,160.024862 89.4381506,164.011387 94.5375385,164.011387 C99.6369264,164.011387 112.158496,164.011387 132.102246,164.011387 C139.646224,164.918989 142.835197,160.197974 141.669163,149.848344 C139.920112,134.323898 133.521447,97.4340258 104.050966,74.8410417 C121.065105,65.8623788 153.125887,23.7643788 104.050966,0.505770102 C68.6655949,0.505770102 43.8022695,0.505770102 29.4609898,0.505770102 Z" id="Path-53" fill="#000000"></path>
                    <path d="M93.9440835,24.8285647 C87.8735808,17.9433864 76.9580255,17.6169568 70.7087888,31.7137431 C64.4595521,45.8105294 66.272214,61.6123384 70.7087888,60.5426291 C82.0504003,58.8575945 92.077008,47.3211007 95.6964933,41.7577312 C99.3159785,36.1943617 100.014586,31.7137431 93.9440835,24.8285647 Z" id="Path-54" fill="#FFFFFF"></path>
                </g>
                <g id="O" transform="translate(166.000000, 1.000000)">
                    <path d="M0.5888698,0.524970518 C9.90735903,6.28283409 16.0775008,12.4272372 19.0992951,18.9581799 C23.6319866,28.754594 38.1209397,63.0034586 27.5994744,89.2906773 C17.0780091,115.577896 25.6993916,163.416329 47.7514142,163.788572 C62.4527625,164.036733 85.1142267,164.036733 115.735807,163.788572 C141.245651,149.891507 148.957605,125.058875 138.871669,89.2906773 C123.742765,35.6383801 129.407134,23.6040244 133.394168,15.7136729 C137.381203,7.82332141 136.262979,0.524970518 125.272099,0.524970518 C117.944846,0.524970518 76.3837696,0.524970518 0.5888698,0.524970518 Z" id="Path-55" fill="#000000"></path>
                    <path d="M64.776432,47.9813703 C68.2003829,30.0851989 71.9659251,23.1119131 84.1651566,24.4662223 C96.3643882,25.8205315 100.75444,39.940712 101.603998,53.4026258 C102.170369,62.3772351 102.453555,72.708029 102.453555,84.3950074 C99.8060214,96.8803719 93.7098886,102.798074 84.1651566,102.148112 C69.8480588,101.17317 64.3938497,92.582751 63.5957316,83.3863083 C62.7976135,74.1898656 61.3524812,65.8775417 64.776432,47.9813703 Z" id="Path-57" fill="#FFFFFF"></path>
                </g>
                <path d="M327.016152,36.7061725 C321.53862,40.6548369 319.004929,44.2186771 316.232897,36.7061725 C314.384877,31.6978361 313.460866,22.6756642 313.460866,9.63965656 C314.41366,3.56456687 318.932089,0.381342054 327.016152,0.0899821151 C335.100216,-0.201377824 360.313184,0.214824628 402.655057,1.33858947 C413.640277,2.91323277 414.555716,9.20149077 405.401375,20.2033635 C402.018595,24.2688558 400.14076,30.523216 399.76787,38.9664442 C399.343728,48.5701097 403.088382,69.3473629 411.001829,101.298204 C417.334209,135.779713 404.919691,157.039002 373.758275,165.076072 C342.59686,165.076072 321.025651,165.076072 309.044648,165.076072 C300.577045,164.584503 296.574099,160.763098 297.035811,153.611856 C297.280493,149.822085 305.955025,143.474973 307.219723,131.733009 C307.967569,124.789711 306.850634,110.773684 303.86892,89.6849256 C303.68798,81.9427401 307.809306,81.9427401 316.232897,89.6849256 C328.868285,101.298204 350.43127,110.659317 366.215812,89.6849256 C382.000355,68.7105345 360.238437,28.306353 346.99168,28.8194047 C333.744923,29.3324564 332.493684,32.7575081 327.016152,36.7061725 Z" id="Path-56" fill="#000000"></path>
                <path d="M406.695482,11.0346521 C413.665482,23.9541567 436.248521,83.6842184 406.695482,146.951479 C399.731219,159.122153 403.020075,164.930245 416.562049,164.375757 L501.269809,164.375757 C507.977045,165.127924 511.923699,161.006325 513.109771,152.010959 C514.295842,143.015593 514.295842,123.137525 513.109771,92.376755 C509.570335,87.3112403 505.108234,87.9309628 499.723468,94.2359224 C491.64632,103.693362 467.733765,119.285757 458.573518,107.552543 C449.413271,95.8193282 455.666834,76.8703497 471.355598,76.6435135 C481.814774,76.4922893 486.186594,76.5679014 484.47106,76.8703497 C489.834783,76.4559798 492.833875,74.4405247 493.468335,70.8239845 C494.102795,67.2074442 494.102795,62.3882902 493.468335,56.3665225 C494.227677,53.0778448 491.648659,51.6426729 485.731282,52.061007 C476.855216,52.688508 459.70359,54.6874789 458.573518,40.1321459 C457.443445,25.5768129 483.438035,24.7971805 499.723468,39.0240306 C510.580424,48.5085973 513.960069,38.1527414 509.862402,7.95646265 C508.639019,2.01029079 505.259374,-0.603028141 499.723468,0.116505854 C494.187563,0.83603985 461.27974,1.23100197 401,1.30139222 C402.962909,0.511467977 404.861403,3.75588795 406.695482,11.0346521 Z" id="Path-58" fill="#000000"></path>
                <path d="M587.454234,47.8601494 C584.907873,50.0601261 576.473281,58.1549503 584.907873,63.2284557 C590.530934,66.6107927 599.315206,66.6107927 611.26069,63.2284557 C613.956477,62.2905806 616.273188,58.8284245 618.210823,52.8419875 C620.148458,46.8555504 620.148458,32.4413325 618.210823,9.59933368 C615.03927,2.46175469 609.120283,-0.695467266 600.453864,0.127667827 C591.787444,0.95080292 564.55413,1.36237047 518.753923,1.36237047 C511.608781,2.5730339 511.094538,7.65883959 517.211194,16.6197875 C526.386178,30.0612094 521.540025,58.3925611 515.299968,80.8273323 C512.048908,92.5158103 512.139667,127.555571 513.777565,146.269583 C514.192247,151.007589 507.181994,158.648582 508.079453,161.306269 C510.441011,168.299661 523.41221,165.084166 539.913416,165.622822 C571.607295,166.657419 594.025131,167.174718 607.166926,167.174718 C612.260904,167.671619 614.945816,164.860417 615.221663,158.741114 C615.497511,152.62181 616.073177,130.576936 616.948664,92.6064901 C615.819004,87.3291759 612.558425,86.8145525 607.166926,91.0626199 C599.079678,97.4347209 579.844792,114.076217 563.494673,100.776262 C547.144553,87.4763067 547.181004,46.0486217 552.747206,36.666024 C558.313408,27.2834263 563.766472,19.6182463 574.337172,21.3577335 C584.907873,23.0972208 598.824958,35.8289735 587.454234,47.8601494 Z" id="Path-59" fill="#000000"></path>
                <path d="M610.855425,57.2925147 C609.714858,44.1842976 609.714858,27.480994 610.855425,7.18260393 C611.796332,2.7919285 614.106662,0.503244125 617.786415,0.316550793 C621.466168,0.129857461 651.433153,0.0365107952 707.687371,0.0365107952 C713.150181,-0.359874323 715.86366,2.471303 715.827809,8.53004276 C715.798624,13.4623114 722.242372,24.071851 722.459106,35.4179411 C722.641723,44.9779529 720.408353,55.5657406 719.477977,58.6622756 C717.443405,65.4338651 706.792461,68.9375113 702.224562,53.805205 C697.656663,38.6728988 697.846401,25.6693023 687.797429,25.63379 C681.098115,25.6101151 677.268196,28.8714988 676.307672,35.4179411 C676.279939,80.6214023 680.592487,111.041593 689.245317,126.678512 C702.224562,150.133891 704.431399,162.753955 693.559556,162.704237 C686.311661,162.671092 664.796269,162.687665 629.013381,162.753955 C622.672572,160.406083 623.231637,152.728658 630.690577,139.721679 C641.878987,120.211212 651.984778,43.144407 649.421803,35.4179411 C646.858828,27.6914752 643.334992,25.63379 638.197881,25.63379 C633.060771,25.63379 627.912499,29.6842236 627.015559,35.4179411 C626.11862,41.1516586 624.03273,52.7490038 622.786549,58.6622756 C621.540369,64.5755474 610.855425,62.136719 610.855425,57.2925147 Z" id="Path-60" fill="#000000"></path>
                <path d="M724.161427,0 C715.120717,0.395184383 712.86054,6.95435374 717.380895,19.6775081 C721.901249,32.4006624 721.901249,44.9727751 717.380895,57.3938461 C713.745991,64.9281008 723.643923,72.0983698 747.074693,78.9046532 C782.220847,89.1140783 758.090829,105.934671 747.074693,105.318124 C739.730602,104.907092 729.832669,100.460525 717.380895,91.9784222 C709.540595,86.3616537 705.751183,88.3539178 706.012658,97.9552146 C706.274134,107.556511 706.404871,124.978299 706.404871,150.220578 C706.828778,158.091581 710.487453,162.87044 717.380895,164.557154 C724.274337,166.243868 746.543818,166.243868 784.18934,164.557154 C808.330253,156.70794 821.100453,142.079185 822.49994,120.670888 C823.899428,99.2625915 808.194068,79.9574878 775.38386,62.7555771 C751.711778,55.2777774 743.945266,43.6505416 752.084323,27.8738699 C761.487533,18.8074091 770.42022,18.5112785 778.882386,26.9854781 C780.422914,30.2368013 779.256739,33.9790209 775.38386,38.2121371 C769.574541,44.5618113 775.689325,50.6124705 779.939333,50.9130846 C782.772671,51.113494 790.872996,51.2136987 804.240308,51.2136987 C807.774123,51.8756895 809.694003,48.0031504 809.999947,39.5960815 C810.305891,31.1890125 810.152919,20.6848402 809.541031,8.0835644 C809.2676,4.04803418 806.08157,1.69189089 799.98294,1.01513453 C793.884311,0.338378178 768.610473,0 724.161427,0 Z" id="Path-61" fill="#000000"></path>
            </g>
        </g>
    </g>
</svg>