<?xml version="1.0" encoding="UTF-8"?>
<svg width="1014px" height="141px" viewBox="0 0 1014 141" version="1.1" xmlns="http://www.w3.org/2000/svg" xmlns:xlink="http://www.w3.org/1999/xlink">
    <!-- Generator: Sketch 47.1 (45422) - http://www.bohemiancoding.com/sketch -->
    <title>HI, I’M ALEX</title>
    <desc>Created with Sketch.</desc>
    <defs></defs>
    <g id="Layout" stroke="none" stroke-width="1" fill="none" fill-rule="evenodd">
        <g id="Desktop" transform="translate(-64.000000, -440.000000)" fill="#EEEEEE">
            <path d="M153.164248,552.33195 L127.59455,552.33195 L127.59455,507.86722 L89.7162292,507.86722 L89.7162292,552.33195 L64,552.33195 L64,445.850622 L89.7162292,445.850622 L89.7162292,488.121369 L127.59455,488.121369 L127.59455,445.850622 L153.164248,445.850622 L153.164248,552.33195 Z M213.195784,552.33195 L187.55282,552.33195 L187.55282,445.850622 L213.195784,445.850622 L213.195784,552.33195 Z M254.984183,581 L242.52903,575.149378 L245.02006,570.176349 C248.439139,563.838143 250.221918,557.79256 250.36845,552.039419 L250.36845,533.756224 L270.150165,533.756224 L270.076899,549.626037 C270.028055,555.232912 268.587179,560.937212 265.754228,566.739108 C262.921277,572.541004 259.331298,577.294587 254.984183,581 Z M385.377707,552.33195 L359.734743,552.33195 L359.734743,445.850622 L385.377707,445.850622 L385.377707,552.33195 Z M427.239372,479.19917 L416.396062,473.348548 C420.450112,466.327766 422.52595,459.453353 422.623638,452.725104 L422.623638,440 L440.646979,440 L440.646979,451.920643 C440.646979,456.454898 439.340422,461.293802 436.727268,466.4375 C434.114115,471.581198 430.951515,475.835045 427.239372,479.19917 Z M506.173436,445.850622 L529.984759,519.934129 L553.722817,445.850622 L587.571529,445.850622 L587.571529,552.33195 L561.782034,552.33195 L561.782034,527.466805 L564.273065,476.56639 L538.48357,552.33195 L521.485948,552.33195 L495.623188,476.493257 L498.114218,527.466805 L498.114218,552.33195 L472.397989,552.33195 L472.397989,445.850622 L506.173436,445.850622 Z M734.596346,532.439834 L699.355587,532.439834 L693.201276,552.33195 L665.726672,552.33195 L704.850508,445.850622 L729.028159,445.850622 L768.445058,552.33195 L740.823923,552.33195 L734.596346,532.439834 Z M705.509898,512.620851 L728.442035,512.620851 L716.939334,475.688797 L705.509898,512.620851 Z M818.292674,532.5861 L863.057962,532.5861 L863.057962,552.33195 L792.576445,552.33195 L792.576445,445.850622 L818.292674,445.850622 L818.292674,532.5861 Z M956.425351,507.209025 L915.982734,507.209025 L915.982734,532.5861 L963.751912,532.5861 L963.751912,552.33195 L890.266505,552.33195 L890.266505,445.850622 L963.898443,445.850622 L963.898443,465.669606 L915.982734,465.669606 L915.982734,488.121369 L956.425351,488.121369 L956.425351,507.209025 Z M1030.37735,481.246888 L1047.81457,445.850622 L1077.19408,445.850622 L1047.37497,498.65249 L1078,552.33195 L1048.32743,552.33195 L1030.37735,516.27749 L1012.42728,552.33195 L982.827972,552.33195 L1013.37973,498.65249 L983.633894,445.850622 L1012.94014,445.850622 L1030.37735,481.246888 Z" id="HI,-I’M-ALEX"></path>
        </g>
    </g>
</svg>